Genre:Horror | Mystery | Thriller
Language:English 
http://www.imdb.com/title/tt1477076/
Source:DVD9/Audio:Cam LKRG.Thx
Sample:Yes

General
Complete name :Saw.3D.2010.R5.Cam Audio.H264.Feel-Free
Format : MPEG-4
Format profile : Base Media
Codec ID : isom
File size : 650 MiB
Duration : 1h 26mn
Overall bit rate : 1 052 Kbps
Video #2
Codec ID : avc1
Codec ID/Info : Advanced Video Coding
Duration : 1h 26mn
Bit rate mode : Variable
Bit rate : 943 Kbps
Width : 720 pixels
Height : 384 pixels
Display aspect ratio : 1.875
Frame rate mode : Constant
Frame rate : 23.976 fps
Original frame rate : 23.000 fps
Resolution : 24 bits
Colorimetry : 4:2:0
Scan type : Progressive
Bits/(Pixel*Frame) : 0.142
Stream size : 583 MiB (90%)
Audio #1
ID : 1
Format : AAC
Format/Info : Advanced Audio Codec
Format version : Version 4
Format profile : LC
Format settings, SBR : No
Codec ID : 40
Duration : 1h 26mn
Bit rate mode : Constant
Bit rate : 103 Kbps
Channel(s) : 2 channels
Channel positions : L R
Sampling rate : 48.0 KHz
Resolution : 16 bits
Stream size : 63.8 MiB (10%)

Plot:
As a deadly battle rages over Jigsaw's brutal legacy, a group of Jigsaw survivors gathers to seek the support of self-help guru and fellow survivor Bobby Dagen, a man whose own dark secrets unleash a new wave of terror